<?xml version="1.0" encoding="UTF-8" standalone="no"?>
<svg
   xmlns:dc="http://purl.org/dc/elements/1.1/"
   xmlns:cc="http://creativecommons.org/ns#"
   xmlns:rdf="http://www.w3.org/1999/02/22-rdf-syntax-ns#"
   xmlns:svg="http://www.w3.org/2000/svg"
   xmlns="http://www.w3.org/2000/svg"
   xmlns:sodipodi="http://sodipodi.sourceforge.net/DTD/sodipodi-0.dtd"
   xmlns:inkscape="http://www.inkscape.org/namespaces/inkscape"
   id="Layer_1"
   enable-background="new 0 0 512 512"
   height="512"
   viewBox="0 0 512 512"
   width="512"
   version="1.1"
   sodipodi:docname="surveyengine-logo.svg"
   inkscape:version="1.0.1 (c497b03c, 2020-09-10)">
  <metadata
     id="metadata41">
    <rdf:RDF>
      <cc:Work
         rdf:about="">
        <dc:format>image/svg+xml</dc:format>
        <dc:type
           rdf:resource="http://purl.org/dc/dcmitype/StillImage" />
      </cc:Work>
    </rdf:RDF>
  </metadata>
  <defs
     id="defs39" />
  <sodipodi:namedview
     pagecolor="#ffffff"
     bordercolor="#666666"
     borderopacity="1"
     objecttolerance="10"
     gridtolerance="10"
     guidetolerance="10"
     inkscape:pageopacity="0"
     inkscape:pageshadow="2"
     inkscape:window-width="1680"
     inkscape:window-height="1050"
     id="namedview37"
     showgrid="false"
     inkscape:zoom="1.4355469"
     inkscape:cx="256"
     inkscape:cy="256"
     inkscape:window-x="0"
     inkscape:window-y="0"
     inkscape:window-maximized="0"
     inkscape:current-layer="Layer_1" />
  <g
     id="g12"
     style="fill:#ff435b;fill-opacity:1">
    <path
       d="m 496.999,512 c -2.718,0 -5.431,-0.737 -7.831,-2.207 L 401.284,455.999 H 224.003 c -23.711,0 -43.002,-19.291 -43.002,-43.002 V 187.001 C 181.001,163.29 200.292,144 224.003,144 H 468.998 C 492.709,144 512,163.291 512,187.001 V 497 c 0,5.428 -2.933,10.432 -7.667,13.085 -2.281,1.278 -4.809,1.915 -7.334,1.915 z"
       fill="#ff8856"
       id="path10"
       style="fill:#ff435b;fill-opacity:1" />
  </g>
  <path
     d="m 367.702,300.5 38.894,-38.893 c 5.858,-5.857 5.858,-15.355 0,-21.213 -5.857,-5.858 -15.355,-5.858 -21.213,0 l -38.894,38.893 -38.894,-38.893 c -5.857,-5.858 -15.355,-5.858 -21.213,0 -5.858,5.858 -5.858,15.355 0,21.213 l 38.894,38.893 -38.894,38.893 c -5.858,5.857 -5.858,15.355 0,21.213 2.929,2.929 6.768,4.394 10.606,4.394 3.838,0 7.678,-1.465 10.606,-4.394 l 38.894,-38.893 38.894,38.893 c 2.929,2.929 6.768,4.394 10.606,4.394 3.838,0 7.678,-1.464 10.606,-4.394 5.858,-5.858 5.858,-15.355 0,-21.213 z"
     fill="#fff4f4"
     id="path16" />
  <g
     id="g20"
     style="fill:#00cb75;fill-opacity:1">
    <path
       d="m 15.003,343.893 c -3.91,0 -7.745,-1.53 -10.609,-4.394 C 0.253,335.358 -1.1,329.186 0.931,323.692 L 25.55,257.081 C 8.81,230.386 0.001,199.757 0.001,168 0.001,75.365 75.365,0 168.001,0 260.636,0 336,75.364 336,168 c 0,92.635 -75.364,167.999 -167.999,167.999 -27.084,0 -53.769,-6.542 -77.619,-18.975 l -70.181,25.938 c -1.694,0.626 -3.453,0.931 -5.198,0.931 z"
       fill="#bee75e"
       id="path18"
       style="fill:#00cb75;fill-opacity:1" />
  </g>
  <g
     id="g26"
     transform="translate(-14,4)">
    <path
       d="m 168,217 c -3.839,0 -7.678,-1.464 -10.606,-4.394 l -39.5,-39.5 c -5.858,-5.858 -5.858,-15.355 0,-21.213 5.857,-5.858 15.355,-5.858 21.213,0 L 168,180.787 232.894,115.893 c 5.858,-5.858 15.355,-5.857 21.213,0 5.858,5.858 5.858,15.355 0,21.213 l -75.5,75.5 C 175.678,215.536 171.839,217 168,217 Z"
       fill="#fff4f4"
       id="path24" />
  </g>
</svg>
